<svg height="464pt" viewBox="-4 0 464 464" width="464pt" xmlns="http://www.w3.org/2000/svg"><path d="m168 376c92.800781 0 168-21.488281 168-48v-96c0 26.511719-75.199219 48-168 48s-168-21.488281-168-48v96c0 26.511719 75.199219 48 168 48zm0 0" fill="#2488ff"/><path d="m336 416v-88c0 26.511719-75.199219 48-168 48s-168-21.488281-168-48v88c0 26.511719 75.199219 48 168 48s168-21.488281 168-48zm0 0" fill="#006df0"/><path d="m168 280c92.800781 0 168-21.488281 168-48v-96c0 26.511719-75.199219 48-168 48s-168-21.488281-168-48v96c0 26.511719 75.199219 48 168 48zm0 0" fill="#57a4ff"/><path d="m168 184c92.800781 0 168-21.488281 168-48v-88c0 26.511719-75.199219 48-168 48s-168-21.488281-168-48v88c0 26.511719 75.199219 48 168 48zm0 0" fill="#9bc9ff"/><path d="m336 48c0-26.507812-75.214844-48-168-48s-168 21.492188-168 48 75.214844 48 168 48 168-21.492188 168-48zm0 0" fill="#bddbff"/><path d="m408 104c-9.707031.003906-18.453125 5.847656-22.167969 14.816406-3.714843 8.964844-1.660156 19.289063 5.199219 26.152344 9.371094 9.367188 24.566406 9.367188 33.9375 0 6.859375-6.863281 8.914062-17.1875 5.199219-26.152344-3.714844-8.96875-12.460938-14.8125-22.167969-14.816406zm0 0" fill="#b2fa09"/><path d="m336 120v16c0 26.480469-75.199219 48-168 48s-168-21.519531-168-48v-16c0 26.480469 75.199219 48 168 48s168-21.519531 168-48zm0 0" fill="#2488ff"/><path d="m336 216v16c0 26.480469-75.199219 48-168 48s-168-21.519531-168-48v-16c0 26.480469 75.199219 48 168 48s168-21.519531 168-48zm0 0" fill="#006df0"/><path d="m336 312v16c0 26.480469-75.199219 48-168 48s-168-21.519531-168-48v-16c0 26.480469 75.199219 48 168 48s168-21.519531 168-48zm0 0" fill="#005ece"/><path d="m336 400v16c0 26.480469-75.199219 48-168 48s-168-21.519531-168-48v-16c0 26.480469 75.199219 48 168 48s168-21.519531 168-48zm0 0" fill="#005ece"/><path d="m336 48c0 26.480469-75.199219 48-168 48s-168-21.519531-168-48c.046875-2.824219.847656-5.585938 2.320312-8 13.28125 22.640625 82.398438 40 165.679688 40s152.398438-17.359375 165.679688-40c1.472656 2.414062 2.273437 5.175781 2.320312 8zm0 0" fill="#57a4ff"/><path d="m412.320312 328c-1.398437 4.484375-3.21875 8.824219-5.441406 12.960938l25.28125 25.277343-33.921875 33.921875-25.277343-25.28125c-4.136719 2.222656-8.476563 4.042969-12.960938 5.441406v35.679688h-48v-35.679688c-4.484375-1.398437-8.824219-3.21875-12.960938-5.441406l-25.277343 25.28125-33.921875-33.921875 25.28125-25.277343c-2.222656-4.136719-4.042969-8.476563-5.441406-12.960938h-35.679688v-48h35.679688c1.398437-4.484375 3.21875-8.824219 5.441406-12.960938l-25.28125-25.277343 33.921875-33.921875 25.277343 25.28125c4.136719-2.222656 8.476563-4.042969 12.960938-5.441406v-35.679688h48v35.679688c4.484375 1.398437 8.824219 3.21875 12.960938 5.441406l25.277343-25.28125 33.921875 33.921875-25.28125 25.277343c2.222656 4.136719 4.042969 8.476563 5.441406 12.960938h35.679688v48zm0 0" fill="#ed1c24"/><path d="m368 304c0 17.671875-14.328125 32-32 32s-32-14.328125-32-32 14.328125-32 32-32 32 14.328125 32 32zm0 0" fill="#f1f2f2"/><path d="m438.863281 120c-.742187-2.863281-1.886719-5.609375-3.398437-8.152344l12.128906-12.136718-11.3125-11.3125-12.128906 12.136718c-2.542969-1.511718-5.289063-2.65625-8.152344-3.398437v-17.136719h-16v17.136719c-2.863281.742187-5.609375 1.886719-8.152344 3.398437l-12.128906-12.136718-11.3125 11.3125 12.128906 12.136718c-1.511718 2.542969-2.65625 5.289063-3.398437 8.152344h-17.136719v16h17.136719c.742187 2.863281 1.886719 5.609375 3.398437 8.152344l-12.128906 12.136718 11.3125 11.3125 12.128906-12.136718c2.542969 1.511718 5.289063 2.65625 8.152344 3.398437v17.136719h16v-17.136719c2.863281-.742187 5.609375-1.886719 8.152344-3.398437l12.128906 12.136718 11.3125-11.3125-12.128906-12.136718c1.511718-2.542969 2.65625-5.289063 3.398437-8.152344h17.136719v-16zm-30.863281 24c-8.835938 0-16-7.164062-16-16s7.164062-16 16-16 16 7.164062 16 16-7.164062 16-16 16zm0 0" fill="#91cc04"/></svg>